<?xml version="1.0" standalone="no"?>
<!DOCTYPE svg PUBLIC "-//W3C//DTD SVG 20010904//EN"
 "http://www.w3.org/TR/2001/REC-SVG-20010904/DTD/svg10.dtd">
<svg version="1.0" xmlns="http://www.w3.org/2000/svg"
 width="480.000000pt" height="414.000000pt" viewBox="0 0 480.000000 414.000000"
 preserveAspectRatio="xMidYMid meet">

<g transform="translate(0.000000,414.000000) scale(0.100000,-0.100000)"
fill="#000000" stroke="none">
<path d="M2220 3579 c-580 -58 -1107 -482 -1298 -1044 -106 -311 -106 -699 0
-1010 151 -445 528 -822 973 -973 311 -106 699 -106 1010 0 445 151 822 528
973 973 106 311 106 699 0 1010 -151 444 -529 822 -973 973 -206 70 -444 95
-685 71z m440 -85 c51 -8 96 -17 99 -19 2 -3 -158 -5 -357 -5 -199 0 -362 2
-362 4 0 2 33 10 73 17 173 29 365 31 547 3z m-515 -264 l-160 -160 -245 0
-245 0 160 160 160 160 245 0 245 0 -160 -160z m1000 0 l160 -160 -245 0 -245
0 -160 160 -160 160 245 0 245 0 160 -160z m-550 -50 l190 -190 287 0 288 0 0
-287 0 -288 192 -192 193 -193 -193 -193 -192 -192 0 -288 0 -287 -287 0 -288
0 -192 -192 -193 -193 -182 182 -181 181 67 -18 c95 -27 302 -46 321 -30 24
20 17 50 -16 68 -95 53 -262 180 -273 208 -3 7 15 -1 39 -17 60 -41 136 -61
225 -61 91 0 161 19 232 65 129 84 199 209 200 359 1 47 4 65 12 61 6 -4 29
-18 50 -31 108 -67 284 -74 404 -16 261 127 329 477 134 686 -89 95 -191 140
-318 141 -65 0 -154 -16 -179 -33 -5 -4 -31 -18 -56 -33 l-46 -26 -1 67 c-1
150 -71 275 -200 359 -71 46 -141 65 -232 65 -89 0 -165 -20 -226 -62 -59 -39
-44 -16 31 50 57 50 134 104 204 142 33 18 41 48 17 67 -19 16 -229 -3 -322
-29 l-67 -18 179 179 c98 98 181 179 184 179 3 0 91 -85 195 -190z m-1005 97
c0 -1 -100 -101 -221 -222 -196 -195 -215 -211 -162 -140 69 92 218 241 313
314 63 49 70 54 70 48z m1715 -69 c88 -70 229 -213 295 -300 28 -38 49 -68 48
-68 -2 0 -102 100 -223 222 -121 122 -213 217 -205 211 8 -5 47 -35 85 -65z
m-1402 -257 c-177 -94 -339 -252 -433 -423 l-30 -53 0 258 0 257 268 0 267 -1
-72 -38z m312 6 c-59 -42 -194 -188 -245 -263 -130 -196 -210 -442 -210 -649
1 -167 54 -393 127 -540 75 -149 198 -303 306 -382 45 -33 49 -38 30 -41 -36
-5 -171 36 -260 78 -247 120 -437 347 -515 617 -20 68 -23 101 -23 253 0 152
3 185 23 255 92 320 354 584 669 674 37 11 82 20 98 20 l30 0 -30 -22z m-1015
-672 l-160 -160 0 245 0 245 158 158 157 157 3 -242 2 -243 -160 -160z m2560
85 l0 -245 -160 160 -160 160 0 245 0 245 160 -160 160 -160 0 -245z m-1208
388 c73 -34 142 -103 176 -176 23 -49 27 -70 27 -152 0 -81 -4 -103 -26 -150
-34 -72 -109 -146 -184 -182 -51 -24 -72 -28 -145 -28 -73 0 -94 4 -145 28
-129 62 -206 175 -213 314 -8 162 74 291 226 355 80 33 202 30 284 -9z m-572
-214 c-16 -42 -14 -183 3 -242 29 -95 116 -205 196 -247 39 -20 39 -30 0 -50
-80 -42 -167 -152 -196 -247 -17 -59 -19 -200 -3 -242 6 -16 8 -31 5 -34 -8
-8 -75 146 -100 234 -37 128 -48 200 -48 319 1 177 26 289 105 458 39 83 61
113 38 51z m-1022 -697 l-3 -182 -13 70 c-22 114 -31 287 -22 408 5 61 14 144
22 182 l13 70 3 -183 c1 -100 1 -264 0 -365z m2304 511 c69 -32 137 -98 175
-170 26 -48 28 -62 28 -158 0 -96 -2 -110 -28 -158 -38 -72 -106 -138 -175
-170 -49 -23 -70 -27 -152 -27 -82 0 -103 4 -152 27 -209 98 -274 368 -132
551 41 53 92 90 160 118 73 29 199 23 276 -13z m604 -73 c10 -62 16 -159 16
-255 0 -136 -22 -343 -37 -359 -3 -2 -5 159 -5 359 0 200 2 361 5 359 2 -3 12
-50 21 -104z m-2488 13 c-42 -164 -41 -390 1 -542 l19 -69 -171 171 -172 172
170 170 c93 93 170 170 171 170 0 0 -8 -33 -18 -72z m1300 -268 c0 -33 -2 -60
-4 -60 -9 0 -79 53 -79 60 0 8 63 57 77 59 3 1 6 -26 6 -59z m-126 -72 c73
-34 142 -103 176 -176 23 -49 27 -70 27 -152 0 -81 -4 -103 -26 -150 -34 -72
-109 -146 -184 -182 -51 -24 -72 -28 -145 -28 -73 0 -94 4 -145 28 -129 62
-206 175 -213 314 -8 162 74 291 226 355 80 33 202 30 284 -9z m-1192 -588 l0
-245 -160 160 -160 160 0 245 0 245 160 -160 160 -160 0 -245z m2240 -85
l-160 -160 0 245 0 245 158 158 157 157 3 -242 2 -243 -160 -160z m-2071 151
c84 -122 234 -253 375 -328 l71 -37 -267 -1 -268 0 0 258 0 257 28 -50 c15
-27 43 -72 61 -99z m-154 -438 c121 -122 213 -217 205 -211 -58 39 -168 133
-234 199 -65 65 -205 234 -194 234 2 0 102 -100 223 -222z m2268 210 c-140
-183 -286 -328 -423 -421 -8 -6 84 89 205 211 200 202 246 246 218 210z
m-1498 -378 l160 -160 -245 0 -245 0 -160 160 -160 160 245 0 245 0 160 -160z
m1000 0 l-160 -160 -245 0 -245 0 160 160 160 160 245 0 245 0 -160 -160z
m-386 -245 c-16 -15 -223 -37 -359 -37 -136 0 -343 22 -359 37 -2 3 159 5 359
5 200 0 361 -2 359 -5z"/>
</g>
</svg>
