<?xml version="1.0" standalone="no"?>
<!DOCTYPE svg PUBLIC "-//W3C//DTD SVG 20010904//EN"
 "http://www.w3.org/TR/2001/REC-SVG-20010904/DTD/svg10.dtd">
<svg version="1.0" xmlns="http://www.w3.org/2000/svg"
 width="200.000000pt" height="200.000000pt" viewBox="0 0 200.000000 200.000000"
 preserveAspectRatio="xMidYMid meet">

<g transform="translate(0.000000,200.000000) scale(0.100000,-0.100000)"
fill="#000000" stroke="none">
<path d="M855 1975 c-227 -32 -407 -126 -571 -297 -125 -131 -201 -262 -247
-426 -18 -66 -21 -103 -21 -257 0 -167 2 -186 28 -270 35 -116 65 -180 123
-268 132 -198 330 -345 558 -412 112 -33 311 -45 432 -25 278 44 519 200 676
437 58 88 88 152 123 268 26 84 28 103 28 270 0 154 -3 191 -21 257 -46 164
-122 295 -247 426 -168 176 -363 273 -601 301 -109 13 -144 13 -260 -4z m345
-54 c24 -6 -36 -9 -200 -9 -129 0 -230 1 -225 4 57 23 345 27 425 5z m-355
-161 l-100 -100 -160 0 -160 0 100 100 100 100 160 0 160 0 -100 -100z m630 0
l100 -100 -160 0 -160 0 -100 100 -100 100 160 0 160 0 100 -100z m-350 -30
l120 -120 182 0 183 0 0 -182 0 -183 125 -125 125 -126 -125 -123 -125 -124 0
-179 0 -178 -181 0 -180 0 -120 -117 c-66 -65 -124 -118 -129 -118 -10 0 -223
205 -218 210 2 2 30 -3 63 -11 33 -7 86 -14 118 -14 50 0 57 2 57 20 0 11 -12
26 -28 34 -37 19 -154 107 -149 112 2 3 24 -5 48 -16 101 -46 235 -16 312 70
49 53 67 96 70 165 1 30 3 55 3 55 1 0 22 -12 48 -26 101 -57 229 -39 318 44
133 124 111 334 -45 434 -49 31 -57 33 -142 33 -75 0 -96 -4 -128 -22 -21 -13
-41 -23 -45 -23 -4 0 -8 24 -10 53 -3 64 -41 146 -85 183 -83 70 -204 88 -302
46 l-50 -22 44 41 c25 22 66 52 93 67 36 20 48 32 46 47 -3 18 -9 20 -68 17
-63 -4 -126 -14 -166 -28 -10 -4 33 46 96 110 63 64 117 116 120 116 3 0 59
-54 125 -120z m-655 47 c0 -1 -59 -61 -132 -132 -133 -131 -142 -136 -55 -35
50 58 187 181 187 167z m1203 -122 c57 -58 122 -135 115 -135 -2 0 -62 59
-133 132 -72 72 -110 116 -85 97 25 -18 71 -61 103 -94z m-992 -75 c-106 -59
-188 -134 -251 -231 l-40 -62 0 161 0 162 173 0 172 0 -54 -30z m176 -18
c-102 -84 -198 -235 -236 -370 -31 -111 -35 -193 -17 -299 32 -184 88 -295
213 -420 45 -46 79 -83 75 -83 -4 0 -37 8 -73 18 -197 55 -366 225 -425 427
-11 40 -17 94 -16 165 0 183 63 325 198 449 66 60 178 123 249 140 75 17 80
13 32 -27z m-622 -402 l-105 -105 0 155 0 155 103 103 102 102 3 -152 3 -152
-106 -106z m1635 50 l0 -155 -105 105 -105 105 0 155 0 155 105 -105 105 -105
0 -155z m-795 259 c56 -16 129 -91 145 -149 28 -105 -9 -203 -100 -265 -40
-27 -53 -30 -120 -30 -67 0 -80 3 -120 30 -126 85 -147 246 -47 352 64 66 147
88 242 62z m-346 -170 c-11 -46 1 -131 25 -177 14 -27 72 -88 109 -115 17 -11
14 -15 -27 -44 -81 -57 -125 -167 -107 -265 11 -63 0 -54 -32 29 -60 155 -72
291 -37 428 19 73 63 185 73 185 3 0 1 -19 -4 -41z m828 -98 c50 -25 97 -78
113 -126 20 -61 9 -156 -24 -203 -45 -65 -97 -95 -172 -100 -85 -6 -142 16
-192 73 -87 99 -81 226 13 318 69 67 175 83 262 38z m-1213 -56 c-17 -76 -18
-223 0 -297 7 -32 11 -58 7 -58 -3 0 -52 46 -108 102 l-103 103 107 107 c59
59 108 106 109 105 1 -1 -4 -29 -12 -62z m-265 -152 c-1 -143 -4 -197 -10
-173 -17 68 -12 380 7 380 2 0 4 -93 3 -207z m1861 2 c0 -77 -4 -156 -9 -175
-6 -24 -9 30 -9 175 0 147 3 199 9 175 5 -19 9 -98 9 -175z m-763 5 c0 -22 -2
-40 -4 -40 -2 0 -15 8 -30 17 l-25 17 28 23 c16 13 30 23 30 23 1 0 1 -18 1
-40z m-82 -49 c50 -22 109 -86 125 -136 32 -96 -14 -214 -104 -270 -42 -25
-59 -30 -116 -30 -57 0 -74 5 -116 30 -63 40 -106 107 -112 179 -6 69 11 118
57 169 47 52 102 77 171 77 32 0 72 -8 95 -19z m-853 -118 l98 -98 0 -160 0
-160 -105 105 -105 105 0 152 c0 84 3 153 7 153 4 0 52 -44 105 -97z m1628
-56 l0 -152 -105 -105 -105 -105 0 160 0 160 97 97 c54 54 101 98 105 98 5 0
8 -69 8 -153z m-1357 -235 c51 -53 157 -132 176 -132 5 0 13 -4 16 -10 4 -7
-50 -10 -154 -10 l-161 0 0 157 0 158 36 -55 c19 -30 59 -79 87 -108z m-163
-198 c74 -75 124 -131 110 -124 -47 24 -272 260 -248 260 2 0 64 -61 138 -136z
m1429 114 c-16 -32 -208 -222 -239 -238 -14 -7 36 49 110 124 74 75 136 136
138 136 1 0 -3 -10 -9 -22z m-939 -223 l105 -105 -160 0 -160 0 -97 97 c-54
54 -98 101 -98 105 0 5 69 8 153 8 l152 0 105 -105z m730 98 c0 -4 -44 -52
-97 -105 l-98 -98 -160 0 -160 0 105 105 105 105 152 0 c84 0 153 -3 153 -7z
m-390 -264 c-45 -12 -315 -12 -360 0 -24 6 31 9 180 9 149 0 204 -3 180 -9z"/>
</g>
</svg>
